<mxfile host="app.diagrams.net" agent="Mozilla/5.0 (Macintosh; Intel Mac OS X 10_15_7) AppleWebKit/537.36 (KHTML, like Gecko) Chrome/130.0.0.0 Safari/537.36" version="24.8.4">
  <diagram id="C5RBs43oDa-KdzZeNtuy" name="Page-1">
    <mxGraphModel dx="561" dy="376" grid="1" gridSize="10" guides="1" tooltips="1" connect="1" arrows="1" fold="1" page="1" pageScale="1" pageWidth="827" pageHeight="1169" math="0" shadow="0">
      <root>
        <mxCell id="WIyWlLk6GJQsqaUBKTNV-0" />
        <mxCell id="WIyWlLk6GJQsqaUBKTNV-1" parent="WIyWlLk6GJQsqaUBKTNV-0" />
        <mxCell id="WIyWlLk6GJQsqaUBKTNV-2" value="" style="rounded=0;html=1;jettySize=auto;orthogonalLoop=1;fontSize=11;endArrow=block;endFill=0;endSize=8;strokeWidth=1;shadow=0;labelBackgroundColor=none;edgeStyle=orthogonalEdgeStyle;entryX=0.5;entryY=0;entryDx=0;entryDy=0;" parent="WIyWlLk6GJQsqaUBKTNV-1" source="WIyWlLk6GJQsqaUBKTNV-3" target="EuCHp1PvACFGd3hwNp-T-0" edge="1">
          <mxGeometry relative="1" as="geometry">
            <mxPoint x="220" y="100" as="targetPoint" />
          </mxGeometry>
        </mxCell>
        <mxCell id="WIyWlLk6GJQsqaUBKTNV-3" value="Начало" style="rounded=1;whiteSpace=wrap;html=1;fontSize=12;glass=0;strokeWidth=1;shadow=0;arcSize=50;" parent="WIyWlLk6GJQsqaUBKTNV-1" vertex="1">
          <mxGeometry x="160" y="20" width="120" height="40" as="geometry" />
        </mxCell>
        <mxCell id="WIyWlLk6GJQsqaUBKTNV-11" value="X = A + i * h&lt;div&gt;F = sin(x) * cos(x)&amp;nbsp;&lt;br&gt;G = 2 * sin(2 * x) + 1&amp;nbsp;&lt;br&gt;&lt;/div&gt;" style="rounded=1;whiteSpace=wrap;html=1;fontSize=12;glass=0;strokeWidth=1;shadow=0;arcSize=0;verticalAlign=middle;" parent="WIyWlLk6GJQsqaUBKTNV-1" vertex="1">
          <mxGeometry x="158" y="831" width="130" height="80" as="geometry" />
        </mxCell>
        <mxCell id="EuCHp1PvACFGd3hwNp-T-0" value="Ввод A, B" style="shape=parallelogram;perimeter=parallelogramPerimeter;whiteSpace=wrap;html=1;fixedSize=1;" parent="WIyWlLk6GJQsqaUBKTNV-1" vertex="1">
          <mxGeometry x="160" y="110" width="120" height="60" as="geometry" />
        </mxCell>
        <mxCell id="EuCHp1PvACFGd3hwNp-T-3" value="" style="edgeStyle=orthogonalEdgeStyle;rounded=0;orthogonalLoop=1;jettySize=auto;html=1;endArrow=none;endFill=0;startArrow=block;startFill=0;endSize=8;startSize=8;" parent="WIyWlLk6GJQsqaUBKTNV-1" edge="1">
          <mxGeometry relative="1" as="geometry">
            <mxPoint x="220" y="210" as="sourcePoint" />
            <mxPoint x="219.79" y="170" as="targetPoint" />
          </mxGeometry>
        </mxCell>
        <mxCell id="EuCHp1PvACFGd3hwNp-T-11" value="Печать: X, F,&amp;nbsp;&lt;span style=&quot;background-color: initial;&quot;&gt;G&lt;/span&gt;" style="shape=parallelogram;perimeter=parallelogramPerimeter;whiteSpace=wrap;html=1;fixedSize=1;" parent="WIyWlLk6GJQsqaUBKTNV-1" vertex="1">
          <mxGeometry x="154" y="940" width="136" height="60" as="geometry" />
        </mxCell>
        <mxCell id="EuCHp1PvACFGd3hwNp-T-12" value="Конец" style="rounded=1;whiteSpace=wrap;html=1;fontSize=12;glass=0;strokeWidth=1;shadow=0;arcSize=50;" parent="WIyWlLk6GJQsqaUBKTNV-1" vertex="1">
          <mxGeometry x="158" y="1110" width="120" height="40" as="geometry" />
        </mxCell>
        <mxCell id="EuCHp1PvACFGd3hwNp-T-20" value="" style="endArrow=block;html=1;rounded=0;endFill=0;startSize=8;endSize=8;exitX=1;exitY=0.5;exitDx=0;exitDy=0;entryX=0.5;entryY=0;entryDx=0;entryDy=0;" parent="WIyWlLk6GJQsqaUBKTNV-1" source="LzIoxZjbUCB1w1fM6wKN-1" target="EuCHp1PvACFGd3hwNp-T-12" edge="1">
          <mxGeometry width="50" height="50" relative="1" as="geometry">
            <mxPoint x="280" y="920" as="sourcePoint" />
            <mxPoint x="220" y="1010" as="targetPoint" />
            <Array as="points">
              <mxPoint x="360" y="751" />
              <mxPoint x="360" y="1040" />
              <mxPoint x="220" y="1040" />
            </Array>
          </mxGeometry>
        </mxCell>
        <mxCell id="LzIoxZjbUCB1w1fM6wKN-0" value="h = (B - A)/ N" style="rounded=1;whiteSpace=wrap;html=1;fontSize=12;glass=0;strokeWidth=1;shadow=0;arcSize=0;" parent="WIyWlLk6GJQsqaUBKTNV-1" vertex="1">
          <mxGeometry x="160" y="630" width="120" height="40" as="geometry" />
        </mxCell>
        <mxCell id="LzIoxZjbUCB1w1fM6wKN-1" value="&lt;div style=&quot;&quot;&gt;&lt;span style=&quot;background-color: initial;&quot;&gt;i = 0, &lt;font face=&quot;.AppleSystemUIFontMonospaced&quot; color=&quot;#0e0e0e&quot;&gt;&lt;span style=&quot;font-size: 14px;&quot;&gt;i &amp;lt;= N,&lt;/span&gt;&lt;/font&gt;&lt;/span&gt;&lt;/div&gt;&lt;div style=&quot;&quot;&gt;&lt;font color=&quot;#0e0e0e&quot;&gt;&lt;span style=&quot;font-size: 14px;&quot;&gt;i++&lt;/span&gt;&lt;/font&gt;&lt;/div&gt;" style="shape=hexagon;perimeter=hexagonPerimeter2;whiteSpace=wrap;html=1;fixedSize=1;align=center;" parent="WIyWlLk6GJQsqaUBKTNV-1" vertex="1">
          <mxGeometry x="160" y="711" width="120" height="80" as="geometry" />
        </mxCell>
        <mxCell id="LzIoxZjbUCB1w1fM6wKN-3" value="" style="edgeStyle=orthogonalEdgeStyle;rounded=0;orthogonalLoop=1;jettySize=auto;html=1;endArrow=none;endFill=0;startArrow=block;startFill=0;endSize=8;startSize=8;" parent="WIyWlLk6GJQsqaUBKTNV-1" edge="1">
          <mxGeometry relative="1" as="geometry">
            <mxPoint x="220" y="710" as="sourcePoint" />
            <mxPoint x="219.79" y="670" as="targetPoint" />
          </mxGeometry>
        </mxCell>
        <mxCell id="LzIoxZjbUCB1w1fM6wKN-4" value="" style="edgeStyle=orthogonalEdgeStyle;rounded=0;orthogonalLoop=1;jettySize=auto;html=1;endArrow=none;endFill=0;startArrow=block;startFill=0;endSize=8;startSize=8;" parent="WIyWlLk6GJQsqaUBKTNV-1" edge="1">
          <mxGeometry relative="1" as="geometry">
            <mxPoint x="220" y="830" as="sourcePoint" />
            <mxPoint x="219.79" y="790" as="targetPoint" />
          </mxGeometry>
        </mxCell>
        <mxCell id="LzIoxZjbUCB1w1fM6wKN-5" value="" style="endArrow=block;html=1;rounded=0;entryX=0;entryY=0.5;entryDx=0;entryDy=0;endFill=0;startSize=8;endSize=8;" parent="WIyWlLk6GJQsqaUBKTNV-1" target="LzIoxZjbUCB1w1fM6wKN-1" edge="1">
          <mxGeometry width="50" height="50" relative="1" as="geometry">
            <mxPoint x="220" y="1000" as="sourcePoint" />
            <mxPoint x="150" y="870" as="targetPoint" />
            <Array as="points">
              <mxPoint x="220" y="1020" />
              <mxPoint x="80" y="1020" />
              <mxPoint x="80" y="873" />
              <mxPoint x="80" y="751" />
            </Array>
          </mxGeometry>
        </mxCell>
        <mxCell id="LzIoxZjbUCB1w1fM6wKN-8" value="A &amp;gt; B" style="rhombus;whiteSpace=wrap;html=1;" parent="WIyWlLk6GJQsqaUBKTNV-1" vertex="1">
          <mxGeometry x="165" y="211" width="110" height="80" as="geometry" />
        </mxCell>
        <mxCell id="LzIoxZjbUCB1w1fM6wKN-9" value="A == B" style="rhombus;whiteSpace=wrap;html=1;" parent="WIyWlLk6GJQsqaUBKTNV-1" vertex="1">
          <mxGeometry x="165" y="330" width="110" height="80" as="geometry" />
        </mxCell>
        <mxCell id="LzIoxZjbUCB1w1fM6wKN-12" value="" style="edgeStyle=orthogonalEdgeStyle;rounded=0;orthogonalLoop=1;jettySize=auto;html=1;endArrow=none;endFill=0;startArrow=block;startFill=0;endSize=8;startSize=8;exitX=0.5;exitY=0;exitDx=0;exitDy=0;" parent="WIyWlLk6GJQsqaUBKTNV-1" source="VSW7ch6K75lCvu9xIWEE-15" edge="1">
          <mxGeometry relative="1" as="geometry">
            <mxPoint x="220" y="450" as="sourcePoint" />
            <mxPoint x="219.79" y="410" as="targetPoint" />
          </mxGeometry>
        </mxCell>
        <mxCell id="LzIoxZjbUCB1w1fM6wKN-13" value="" style="edgeStyle=orthogonalEdgeStyle;rounded=0;orthogonalLoop=1;jettySize=auto;html=1;endArrow=none;endFill=0;startArrow=block;startFill=0;endSize=8;startSize=8;" parent="WIyWlLk6GJQsqaUBKTNV-1" edge="1">
          <mxGeometry relative="1" as="geometry">
            <mxPoint x="220" y="330" as="sourcePoint" />
            <mxPoint x="219.79" y="290" as="targetPoint" />
          </mxGeometry>
        </mxCell>
        <mxCell id="LzIoxZjbUCB1w1fM6wKN-17" value="&lt;span&gt;&lt;/span&gt;Печать: &quot;А&lt;div&gt;должно быть &amp;lt; B &quot;&lt;/div&gt;" style="shape=parallelogram;perimeter=parallelogramPerimeter;whiteSpace=wrap;html=1;fixedSize=1;" parent="WIyWlLk6GJQsqaUBKTNV-1" vertex="1">
          <mxGeometry x="550" y="221" width="150" height="60" as="geometry" />
        </mxCell>
        <mxCell id="LzIoxZjbUCB1w1fM6wKN-18" value="" style="endArrow=block;html=1;rounded=0;entryX=0;entryY=0.5;entryDx=0;entryDy=0;endFill=0;startSize=8;endSize=8;" parent="WIyWlLk6GJQsqaUBKTNV-1" target="LzIoxZjbUCB1w1fM6wKN-17" edge="1">
          <mxGeometry width="50" height="50" relative="1" as="geometry">
            <mxPoint x="275" y="250" as="sourcePoint" />
            <mxPoint x="555.0627413127413" y="250.81177606177607" as="targetPoint" />
          </mxGeometry>
        </mxCell>
        <mxCell id="LzIoxZjbUCB1w1fM6wKN-19" value="" style="endArrow=block;html=1;rounded=0;exitX=0.5;exitY=1;exitDx=0;exitDy=0;endFill=0;startSize=8;endSize=8;" parent="WIyWlLk6GJQsqaUBKTNV-1" source="LzIoxZjbUCB1w1fM6wKN-17" edge="1">
          <mxGeometry width="50" height="50" relative="1" as="geometry">
            <mxPoint x="340" y="610" as="sourcePoint" />
            <mxPoint x="220" y="1070" as="targetPoint" />
            <Array as="points">
              <mxPoint x="620" y="1070" />
            </Array>
          </mxGeometry>
        </mxCell>
        <mxCell id="LzIoxZjbUCB1w1fM6wKN-20" value="Печать: &quot;N должно&lt;div&gt;&amp;nbsp;быть&lt;span style=&quot;background-color: initial;&quot;&gt;&amp;nbsp;&amp;lt; 0&lt;/span&gt;&lt;span style=&quot;background-color: initial;&quot;&gt;&amp;nbsp;&quot;&lt;/span&gt;&lt;/div&gt;" style="shape=parallelogram;perimeter=parallelogramPerimeter;whiteSpace=wrap;html=1;fixedSize=1;" parent="WIyWlLk6GJQsqaUBKTNV-1" vertex="1">
          <mxGeometry x="400" y="520" width="150" height="60" as="geometry" />
        </mxCell>
        <mxCell id="LzIoxZjbUCB1w1fM6wKN-21" value="" style="endArrow=block;html=1;rounded=0;exitX=1;exitY=0.5;exitDx=0;exitDy=0;entryX=0;entryY=0.5;entryDx=0;entryDy=0;endFill=0;startSize=8;endSize=8;" parent="WIyWlLk6GJQsqaUBKTNV-1" target="LzIoxZjbUCB1w1fM6wKN-20" edge="1">
          <mxGeometry width="50" height="50" relative="1" as="geometry">
            <mxPoint x="275" y="550" as="sourcePoint" />
            <mxPoint x="560" y="820" as="targetPoint" />
          </mxGeometry>
        </mxCell>
        <mxCell id="LzIoxZjbUCB1w1fM6wKN-22" value="" style="endArrow=none;html=1;rounded=0;entryX=0.539;entryY=0.957;entryDx=0;entryDy=0;entryPerimeter=0;" parent="WIyWlLk6GJQsqaUBKTNV-1" target="LzIoxZjbUCB1w1fM6wKN-20" edge="1">
          <mxGeometry width="50" height="50" relative="1" as="geometry">
            <mxPoint x="480" y="1070" as="sourcePoint" />
            <mxPoint x="560" y="640" as="targetPoint" />
          </mxGeometry>
        </mxCell>
        <mxCell id="LzIoxZjbUCB1w1fM6wKN-23" value="" style="endArrow=block;html=1;rounded=0;exitX=0.5;exitY=1;exitDx=0;exitDy=0;entryX=0.5;entryY=0;entryDx=0;entryDy=0;endFill=0;endSize=8;startSize=8;" parent="WIyWlLk6GJQsqaUBKTNV-1" source="WIyWlLk6GJQsqaUBKTNV-11" target="EuCHp1PvACFGd3hwNp-T-11" edge="1">
          <mxGeometry width="50" height="50" relative="1" as="geometry">
            <mxPoint x="290" y="790" as="sourcePoint" />
            <mxPoint x="340" y="740" as="targetPoint" />
          </mxGeometry>
        </mxCell>
        <mxCell id="LprDaFDRX13lddqUQynE-0" value="Да" style="text;html=1;align=center;verticalAlign=middle;whiteSpace=wrap;rounded=0;" parent="WIyWlLk6GJQsqaUBKTNV-1" vertex="1">
          <mxGeometry x="250" y="211" width="60" height="30" as="geometry" />
        </mxCell>
        <mxCell id="LprDaFDRX13lddqUQynE-1" value="Да" style="text;html=1;align=center;verticalAlign=middle;whiteSpace=wrap;rounded=0;" parent="WIyWlLk6GJQsqaUBKTNV-1" vertex="1">
          <mxGeometry x="260" y="520" width="60" height="30" as="geometry" />
        </mxCell>
        <mxCell id="LprDaFDRX13lddqUQynE-2" value="Нет" style="text;html=1;align=center;verticalAlign=middle;whiteSpace=wrap;rounded=0;" parent="WIyWlLk6GJQsqaUBKTNV-1" vertex="1">
          <mxGeometry x="230" y="274" width="60" height="30" as="geometry" />
        </mxCell>
        <mxCell id="LprDaFDRX13lddqUQynE-3" value="Нет" style="text;html=1;align=center;verticalAlign=middle;whiteSpace=wrap;rounded=0;" parent="WIyWlLk6GJQsqaUBKTNV-1" vertex="1">
          <mxGeometry x="220" y="580" width="60" height="30" as="geometry" />
        </mxCell>
        <mxCell id="VSW7ch6K75lCvu9xIWEE-3" value="" style="edgeStyle=orthogonalEdgeStyle;rounded=0;orthogonalLoop=1;jettySize=auto;html=1;endArrow=none;endFill=0;startArrow=block;startFill=0;endSize=8;startSize=8;exitX=0.5;exitY=0;exitDx=0;exitDy=0;" edge="1" parent="WIyWlLk6GJQsqaUBKTNV-1" source="LzIoxZjbUCB1w1fM6wKN-0" target="VSW7ch6K75lCvu9xIWEE-1">
          <mxGeometry relative="1" as="geometry">
            <mxPoint x="220" y="630" as="sourcePoint" />
            <mxPoint x="219.79" y="480" as="targetPoint" />
          </mxGeometry>
        </mxCell>
        <mxCell id="VSW7ch6K75lCvu9xIWEE-1" value="N &amp;lt;= 0" style="rhombus;whiteSpace=wrap;html=1;" vertex="1" parent="WIyWlLk6GJQsqaUBKTNV-1">
          <mxGeometry x="165" y="510" width="110" height="80" as="geometry" />
        </mxCell>
        <mxCell id="VSW7ch6K75lCvu9xIWEE-4" value="h = 0, N = 0" style="rounded=1;whiteSpace=wrap;html=1;fontSize=12;glass=0;strokeWidth=1;shadow=0;arcSize=0;" vertex="1" parent="WIyWlLk6GJQsqaUBKTNV-1">
          <mxGeometry x="20" y="630" width="120" height="40" as="geometry" />
        </mxCell>
        <mxCell id="VSW7ch6K75lCvu9xIWEE-7" value="" style="edgeStyle=orthogonalEdgeStyle;rounded=0;orthogonalLoop=1;jettySize=auto;html=1;endArrow=none;endFill=0;startArrow=block;startFill=0;endSize=8;startSize=8;exitX=0.5;exitY=0;exitDx=0;exitDy=0;entryX=0;entryY=0.5;entryDx=0;entryDy=0;" edge="1" parent="WIyWlLk6GJQsqaUBKTNV-1" source="VSW7ch6K75lCvu9xIWEE-4" target="LzIoxZjbUCB1w1fM6wKN-9">
          <mxGeometry relative="1" as="geometry">
            <mxPoint x="250" y="660" as="sourcePoint" />
            <mxPoint x="250" y="620" as="targetPoint" />
          </mxGeometry>
        </mxCell>
        <mxCell id="VSW7ch6K75lCvu9xIWEE-10" value="" style="edgeStyle=orthogonalEdgeStyle;rounded=0;orthogonalLoop=1;jettySize=auto;html=1;endArrow=none;endFill=0;startArrow=block;startFill=0;endSize=8;startSize=8;entryX=0.5;entryY=1;entryDx=0;entryDy=0;" edge="1" parent="WIyWlLk6GJQsqaUBKTNV-1" target="VSW7ch6K75lCvu9xIWEE-4">
          <mxGeometry relative="1" as="geometry">
            <mxPoint x="220" y="690" as="sourcePoint" />
            <mxPoint x="229.79" y="680" as="targetPoint" />
          </mxGeometry>
        </mxCell>
        <mxCell id="VSW7ch6K75lCvu9xIWEE-15" value="Ввод N" style="shape=parallelogram;perimeter=parallelogramPerimeter;whiteSpace=wrap;html=1;fixedSize=1;" vertex="1" parent="WIyWlLk6GJQsqaUBKTNV-1">
          <mxGeometry x="160" y="428" width="120" height="60" as="geometry" />
        </mxCell>
        <mxCell id="VSW7ch6K75lCvu9xIWEE-16" value="" style="edgeStyle=orthogonalEdgeStyle;rounded=0;orthogonalLoop=1;jettySize=auto;html=1;endArrow=none;endFill=0;startArrow=block;startFill=0;endSize=8;startSize=8;exitX=0.5;exitY=0;exitDx=0;exitDy=0;entryX=0.5;entryY=1;entryDx=0;entryDy=0;" edge="1" parent="WIyWlLk6GJQsqaUBKTNV-1" source="VSW7ch6K75lCvu9xIWEE-1" target="VSW7ch6K75lCvu9xIWEE-15">
          <mxGeometry relative="1" as="geometry">
            <mxPoint x="230" y="438" as="sourcePoint" />
            <mxPoint x="229.79" y="420" as="targetPoint" />
          </mxGeometry>
        </mxCell>
      </root>
    </mxGraphModel>
  </diagram>
</mxfile>
